<?xml version="1.0" standalone="no"?>
<!DOCTYPE svg PUBLIC "-//W3C//DTD SVG 20010904//EN"
 "http://www.w3.org/TR/2001/REC-SVG-20010904/DTD/svg10.dtd">
<svg version="1.0" xmlns="http://www.w3.org/2000/svg"
 width="700.000000pt" height="700.000000pt" viewBox="0 0 700.000000 700.000000"
 preserveAspectRatio="xMidYMid meet">
<metadata>
Created by potrace 1.11, written by Peter Selinger 2001-2013
</metadata>
<g transform="translate(0.000000,700.000000) scale(0.100000,-0.100000)"
fill="#000000" stroke="none">
<path d="M1057 5904 c-1 -2 -18 -6 -37 -9 -106 -18 -242 -130 -299 -246 -70
-145 -66 -15 -65 -1936 0 -1813 0 -1788 43 -1868 53 -99 127 -170 242 -232 55
-30 192 -77 254 -88 17 -2 80 -14 140 -25 61 -12 146 -27 190 -35 75 -14 91
-17 155 -30 14 -3 52 -10 85 -15 33 -6 80 -15 105 -20 25 -5 95 -18 155 -30
61 -11 157 -29 215 -40 134 -25 377 -71 410 -76 29 -5 116 -22 180 -35 25 -5
63 -12 85 -15 22 -3 47 -7 55 -9 8 -2 31 -7 50 -10 19 -3 53 -10 75 -15 22 -5
56 -12 75 -15 19 -3 98 -18 175 -32 153 -29 154 -29 205 -19 32 6 698 131 745
140 11 2 58 11 105 20 95 18 110 21 160 30 19 3 46 8 60 11 14 3 50 9 80 15
30 6 66 12 80 15 14 3 50 9 80 15 30 6 66 12 80 15 29 6 122 23 165 31 17 2
122 22 235 44 243 46 279 52 305 57 11 1 43 8 70 13 28 6 66 13 85 16 61 9
192 54 260 90 134 70 223 168 262 289 l22 70 0 1710 c0 940 -3 1739 -7 1775
-12 122 -70 238 -164 327 -102 97 -239 138 -368 110 -22 -5 -74 -15 -115 -22
-41 -8 -85 -16 -96 -19 -12 -2 -39 -7 -60 -10 -22 -4 -73 -13 -114 -21 -41 -8
-88 -17 -105 -20 -16 -3 -64 -12 -105 -20 -41 -8 -124 -23 -185 -34 -60 -12
-121 -23 -135 -26 -14 -3 -38 -8 -55 -10 -16 -3 -77 -15 -135 -26 -58 -11
-121 -22 -140 -25 -19 -3 -43 -7 -52 -10 -10 -3 -30 -7 -45 -10 -16 -3 -53 -9
-83 -15 -30 -6 -64 -12 -75 -13 -11 -2 -42 -8 -70 -14 -27 -6 -140 -27 -250
-48 -110 -20 -263 -49 -340 -63 -111 -22 -149 -26 -190 -18 -27 4 -61 10 -73
12 -13 2 -45 8 -70 14 -40 8 -137 27 -242 46 -129 23 -271 50 -350 66 -52 10
-111 21 -130 24 -19 3 -190 35 -380 72 -190 36 -356 67 -370 69 -14 2 -36 7
-50 10 -14 3 -36 7 -50 9 -14 2 -86 15 -160 30 -74 14 -184 35 -245 46 -60 12
-121 23 -135 26 -30 6 -139 11 -143 7z m358 -568 c34 -7 163 -34 360 -76 105
-23 222 -47 260 -55 39 -8 113 -24 165 -35 104 -22 181 -39 220 -46 14 -3 53
-11 86 -19 34 -8 73 -16 85 -19 13 -2 44 -9 69 -15 25 -5 61 -13 80 -16 19 -3
42 -8 50 -10 8 -2 31 -7 50 -10 19 -3 51 -10 70 -15 19 -5 46 -11 60 -14 46
-9 218 -45 244 -52 l26 -6 0 -1669 c0 -918 -2 -1669 -5 -1669 -2 0 -69 14
-147 31 -115 24 -449 95 -544 114 -11 3 -85 19 -165 35 -210 45 -430 91 -459
96 -14 3 -33 7 -42 10 -9 3 -25 6 -35 8 -42 9 -176 37 -283 60 -63 14 -128 28
-145 31 -16 3 -77 15 -135 28 l-105 22 -2 1660 c-1 913 0 1665 2 1671 2 8 37
4 112 -13 59 -13 117 -25 128 -27z m4412 -1618 c0 -918 -3 -1670 -6 -1672 -5
-3 -289 -65 -380 -82 -13 -3 -87 -18 -165 -35 -77 -17 -152 -32 -166 -35 -14
-3 -86 -18 -160 -34 -74 -16 -146 -31 -160 -34 -20 -3 -221 -46 -385 -82 -11
-2 -29 -6 -40 -8 -75 -15 -376 -79 -405 -86 -19 -5 -51 -12 -70 -15 -19 -3
-53 -10 -75 -15 -22 -5 -43 -10 -47 -10 -5 0 -8 751 -8 1669 0 1582 1 1670 18
1675 9 3 53 12 96 21 44 9 82 18 85 20 4 2 27 6 51 10 25 3 70 12 100 20 30 8
71 17 90 20 19 3 141 29 270 56 129 28 318 68 420 89 102 22 282 60 400 86
118 25 229 48 245 50 17 3 44 9 60 14 17 5 68 16 114 25 47 8 86 17 88 18 2 2
9 4 16 4 11 0 14 -284 14 -1669z"/>
</g>
</svg>
